<?xml version="1.0" encoding="UTF-8" standalone="no"?>
<!-- Generator: Adobe Illustrator 28.2.0, SVG Export Plug-In . SVG Version: 6.00 Build 0)  -->

<svg
   version="1.1"
   id="Layer_1"
   x="0px"
   y="0px"
   viewBox="0 0 500 500"
   style="enable-background:new 0 0 500 500;"
   xml:space="preserve"
   sodipodi:docname="PriviaIndividualFinal-01.svg"
   inkscape:version="1.4 (e7c3feb1, 2024-10-09)"
   xmlns:inkscape="http://www.inkscape.org/namespaces/inkscape"
   xmlns:sodipodi="http://sodipodi.sourceforge.net/DTD/sodipodi-0.dtd"
   xmlns="http://www.w3.org/2000/svg"
   xmlns:svg="http://www.w3.org/2000/svg"><defs
   id="defs7" /><sodipodi:namedview
   id="namedview7"
   pagecolor="#ffffff"
   bordercolor="#000000"
   borderopacity="0.25"
   inkscape:showpageshadow="2"
   inkscape:pageopacity="0.0"
   inkscape:pagecheckerboard="0"
   inkscape:deskcolor="#d1d1d1"
   showgrid="false"
   inkscape:zoom="1.0040496"
   inkscape:cx="229.07235"
   inkscape:cy="234.55017"
   inkscape:window-width="1512"
   inkscape:window-height="836"
   inkscape:window-x="0"
   inkscape:window-y="38"
   inkscape:window-maximized="1"
   inkscape:current-layer="g7" />
<style
   type="text/css"
   id="style1">
	.st0{fill:#FFFFFF;}
	.st1{fill:#F5A35B;}
</style>
<g
   id="g7">
	
	<path
   class="st1"
   d="M 463.07612,82.770528 C 432.03025,39.798606 383.75782,15.188958 330.70517,15.188958 H 186.50266 c -16.84813,0 -31.66128,10.695742 -36.96177,26.691748 L 135.9109,83.243951 v 0 L 135.48362,82.863943 94.07348,209.41393 h 55.56083 c 49.12447,0 93.42138,-26.07688 117.46307,-67.15584 h 58.68426 c 12.49455,0 23.90025,5.77386 31.23558,15.94939 7.33531,10.12747 9.32304,22.76339 5.48978,34.64242 -2.69757,8.32951 -10.4591,13.96139 -19.26196,13.96139 h -76.62061 c -30.90393,0 -58.21094,19.7344 -67.81805,49.1716 l -1.56174,4.7799 h 35.77863 c 6.43595,-12.44711 19.26117,-20.44499 33.60116,-20.44499 h 76.62071 c 23.33192,0 43.87165,-14.90746 51.11223,-37.1034 7.24146,-22.19598 3.54949,-45.81185 -10.17495,-64.74234 -13.72486,-18.88292 -35.02138,-29.72046 -58.40046,-29.72046 h -79.6967 c -2.3191,6.2943 -5.20607,12.30459 -8.61352,17.88907 -3.40743,5.58437 -7.33531,10.83746 -11.68947,15.61742 -19.02547,21.0128 -46.37953,33.64927 -76.09981,33.64927 h -9.32385 l 11.26371,-33.64927 v 0 l 5.58431,-16.75337 5.58496,-16.75312 v 0 0 l 18.59914,-56.317942 c 0.70959,-2.224025 2.79207,-3.691499 5.11105,-3.691499 h 144.20264 c 42.16757,0 80.50166,19.592817 105.20565,53.762381 24.65699,34.16947 31.2821,76.66811 18.07886,116.75322 l -2.88694,8.70803 c -13.10928,39.70672 -50.02394,66.35087 -91.76566,66.35087 H 221.57068 v 0 h -35.25814 v 0 h -67.43951 c -30.951315,0 -58.211137,19.73566 -67.818212,49.17191 L 4.9118777,484.70982 H 60.425758 c 59.110102,0 111.215812,-37.76595 129.578652,-93.9894 l 9.60707,-29.34208 h -35.258 l -6.19969,18.97767 c -13.86648,42.35652 -53.14723,70.84726 -97.775648,70.84726 h -9.323299 l 31.80303,-97.25515 c 5.110913,-15.61776 19.545637,-26.07693 35.967857,-26.07693 h 37.52979 v 0 h 93.18476 v 0 h 109.79621 c 56.31847,0 105.96365,-35.92051 123.61615,-89.39895 l 2.88669,-8.7079 c 16.6118,-50.44951 8.32975,-104.02322 -22.76359,-146.995139 z"
   id="path7"
   style="stroke-width:4.73262" />
</g>
</svg>
